# xmcd
#
# Track frame offsets:
#       150
#       16912
#       27587
#       37325
#       48925
#       60487
#       72112
#       85025
#       94762
#       109325
#       121887
#       133512
#
# Disc length: 1935 seconds
#
# Revision: 0
# Processed by: cddbd v1.4PL0 Copyright (c) Steve Scherf et al.
# Submitted via: CD-DA_X-Tractor v0.21
#
DISCID=9d078d0c
DTITLE=Kenny Rogers/ Dolly Parton - Kenny and Dolly
DYEAR=1900
DGENRE=
TTITLE0=Somethings burning
TTITLE1=Honky tonk angels
TTITLE2=Where does Rose go
TTITLE3=Makin' believe
TTITLE4=What am I gonna do
TTITLE5=Letter to heaven
TTITLE6=Ruby
TTITLE7=Release me
TTITLE8=All God's lovely children
TTITLE9=Little blossom
TTITLE10=Elvira
TTITLE11=Two little orphans
EXTD=
EXTT0=
EXTT1=
EXTT2=
EXTT3=
EXTT4=
EXTT5=
EXTT6=
EXTT7=
EXTT8=
EXTT9=
EXTT10=
EXTT11=
PLAYORDER=
